<svg aria-hidden="true" style="position: absolute; width: 0; height: 0; overflow: hidden;" version="1.1" xmlns="http://www.w3.org/2000/svg" xmlns:xlink="http://www.w3.org/1999/xlink">
<defs>
<symbol id="icon-shop" viewBox="0 0 32 32">
<path d="M31.4 11.2l-3-3.998c-0.117-0.157-0.256-0.293-0.4-0.423v-4.779c0-1.104-0.896-2-2-2h-20c-1.105 0-2 0.896-2 2v4.78c-0.144 0.129-0.283 0.264-0.4 0.42l-2.999 3.999c-0.388 0.516-0.601 1.155-0.601 1.801v1c0 1.654 1.346 3 3 3v0 13c0 1.104 0.896 2 2 2h22c1.104 0 2-0.896 2-2v-13c1.654 0 3-1.346 3-3v-1c0-0.646-0.213-1.285-0.6-1.8zM26 2v4h-20v-4h20zM10.193 15h-4.189l4-7h2.189l-2 7zM13.234 8h2.266v7h-4.266l2-7zM16.5 8h2.266l2 7h-4.266v-7zM19.805 8h2.189l4 7h-4.189l-2-7zM2 14v-1c0-0.217 0.070-0.427 0.2-0.6l3-4c0.189-0.252 0.485-0.4 0.8-0.4h2.852l-4 7h-1.852c-0.552 0-1-0.447-1-1zM20 30h-7.5v-10h7.5v10zM27 30h-6v-10c0-0.553-0.449-1-1-1h-7.5c-0.552 0-1 0.447-1 1v10h-6.5v-13h22v13zM30 14c0 0.553-0.447 1-1 1h-1.854l-4-7h2.854c0.314 0 0.611 0.148 0.799 0.4l3 4c0.131 0.173 0.201 0.383 0.201 0.6v1z"></path>
</symbol>
<symbol id="icon-grid" viewBox="0 0 24 24">
<path d="M3 2c-0.552 0-1 0.448-1 1v7c0 0.552 0.448 1 1 1h7c0.552 0 1-0.448 1-1v-7c0-0.552-0.448-1-1-1zM4 4h5v5h-5zM14 2c-0.552 0-1 0.448-1 1v7c0 0.552 0.448 1 1 1h7c0.552 0 1-0.448 1-1v-7c0-0.552-0.448-1-1-1zM15 4h5v5h-5zM14 13c-0.552 0-1 0.448-1 1v7c0 0.552 0.448 1 1 1h7c0.552 0 1-0.448 1-1v-7c0-0.552-0.448-1-1-1zM15 15h5v5h-5zM3 13c-0.552 0-1 0.448-1 1v7c0 0.552 0.448 1 1 1h7c0.552 0 1-0.448 1-1v-7c0-0.552-0.448-1-1-1zM4 15h5v5h-5z"></path>
</symbol>
<symbol id="icon-arrow-right" viewBox="0 0 20 20">
<path d="M16.172 9l-6.071-6.071 1.414-1.414 8.485 8.485-8.485 8.485-1.414-1.414 6.071-6.071h-16.172v-2z"></path>
</symbol>
<symbol id="icon-arrow-left" viewBox="0 0 20 20">
<path d="M3.828 9l6.071-6.071-1.414-1.414-8.485 8.485 8.485 8.485 1.414-1.414-6.071-6.071h16.172v-2h-16.172z"></path>
</symbol>
<symbol id="icon-plus" viewBox="0 0 24 24">
<path d="M5 13h6v6c0 0.552 0.448 1 1 1s1-0.448 1-1v-6h6c0.552 0 1-0.448 1-1s-0.448-1-1-1h-6v-6c0-0.552-0.448-1-1-1s-1 0.448-1 1v6h-6c-0.552 0-1 0.448-1 1s0.448 1 1 1z"></path>
</symbol>
<symbol id="icon-cart" viewBox="0 0 24 24">
<path d="M19 5h-14l1.5-2h11zM21.794 5.392l-2.994-3.992c-0.196-0.261-0.494-0.399-0.8-0.4h-12c-0.326 0-0.616 0.156-0.8 0.4l-2.994 3.992c-0.043 0.056-0.081 0.117-0.111 0.182-0.065 0.137-0.096 0.283-0.095 0.426v14c0 0.828 0.337 1.58 0.879 2.121s1.293 0.879 2.121 0.879h14c0.828 0 1.58-0.337 2.121-0.879s0.879-1.293 0.879-2.121v-14c0-0.219-0.071-0.422-0.189-0.585-0.004-0.005-0.007-0.010-0.011-0.015zM4 7h16v13c0 0.276-0.111 0.525-0.293 0.707s-0.431 0.293-0.707 0.293h-14c-0.276 0-0.525-0.111-0.707-0.293s-0.293-0.431-0.293-0.707zM15 10c0 0.829-0.335 1.577-0.879 2.121s-1.292 0.879-2.121 0.879-1.577-0.335-2.121-0.879-0.879-1.292-0.879-2.121c0-0.552-0.448-1-1-1s-1 0.448-1 1c0 1.38 0.561 2.632 1.464 3.536s2.156 1.464 3.536 1.464 2.632-0.561 3.536-1.464 1.464-2.156 1.464-3.536c0-0.552-0.448-1-1-1s-1 0.448-1 1z"></path>
</symbol>
</defs>
</svg>
